<svg width="41" height="53" viewBox="0 0 41 53" fill="none" xmlns="http://www.w3.org/2000/svg">
<path fill-rule="evenodd" clip-rule="evenodd" d="M17.1449 3.21174H17.0083C16.7983 3.19903 16.5884 3.19394 16.3784 3.18886H16.3784H16.3581H15.923C15.5259 3.18886 15.1211 3.19903 14.7189 3.21937C14.6886 3.21716 14.6581 3.21716 14.6278 3.21937C10.9835 3.42585 7.41296 4.33674 4.11174 5.90214L3.67915 6.11066V28.2518L4.69104 27.9085C5.57898 27.6034 6.52509 27.3287 7.5041 27.0744C10.1506 26.395 12.868 26.0339 15.5992 25.9988V28.9079C15.2375 28.9104 14.8858 28.9206 14.5342 28.9384H14.4507C12.3488 29.0537 10.2629 29.3739 8.22254 29.8945C5.63841 30.5415 3.14558 31.5129 0.802856 32.7858V4.38911C3.23594 2.96997 5.85658 1.9041 8.58682 1.22319C10.9839 0.604274 13.4481 0.286529 15.923 0.277222H16.3505C16.8616 0.289936 17.3599 0.312822 17.8279 0.348423C19.061 0.434998 20.2841 0.62985 21.4834 0.93075V3.79407C20.3186 3.52273 19.1344 3.34417 17.9417 3.26006C17.9175 3.25801 17.8933 3.25595 17.8691 3.25388C17.6224 3.23283 17.3752 3.21174 17.1449 3.21174ZM22.184 6.13861C22.819 6.18692 23.4767 6.20981 24.142 6.20981C26.7438 6.2003 29.3344 5.86805 31.8552 5.22062C34.4381 4.57118 36.9299 3.599 39.2723 2.32678V30.2174C36.8379 31.6357 34.2166 32.7015 31.4858 33.3834C29.0883 33.9999 26.6243 34.3168 24.1496 34.3268C22.2745 34.3419 20.4049 34.1215 18.5842 33.6707V5.59951C19.0143 5.69868 19.457 5.79023 19.9073 5.86651C20.646 5.99112 21.4251 6.08266 22.184 6.13861ZM36.3783 6.35475L35.3664 6.6955C34.4355 7.00828 33.497 7.288 32.5534 7.53721C29.8061 8.24318 26.9827 8.60532 24.1471 8.6154C23.4868 8.6154 22.8797 8.5976 22.2928 8.55946L21.4858 8.50606V28.5951V31.2829L22.179 31.3439C22.8215 31.3999 23.4843 31.4279 24.1522 31.4279C26.3857 31.4184 28.6094 31.1305 30.7724 30.5709C32.5536 30.1241 34.2864 29.5015 35.9457 28.712L36.3783 28.5035V6.35475Z" fill="#AFB1B8"/>
<path d="M2.76838 42.4896C2.62291 42.3387 2.44754 42.2202 2.25361 42.1418C2.05969 42.0634 1.85154 42.0268 1.64266 42.0344C1.42004 42.0315 1.19906 42.073 0.992517 42.1565C0.803151 42.2319 0.631017 42.3452 0.486572 42.4896C0.343701 42.6344 0.232542 42.8076 0.160238 42.9982C0.0809292 43.1979 0.0413925 43.4113 0.0438705 43.6263V47.4203C0.0348228 47.6877 0.0858382 47.9536 0.193124 48.1984C0.282683 48.3929 0.411975 48.5662 0.572583 48.707C0.724203 48.8347 0.902228 48.9268 1.09371 48.9766C1.27819 49.0284 1.4688 49.055 1.66036 49.0554C1.87166 49.0575 2.08078 49.0124 2.27256 48.9232C2.4622 48.8402 2.63402 48.721 2.7785 48.5723C2.91939 48.4249 3.03177 48.2524 3.1099 48.0637C3.19098 47.8724 3.2323 47.6664 3.23132 47.4585V47.0338H2.23967V47.372C2.24262 47.4875 2.22285 47.6024 2.18149 47.7102C2.14919 47.791 2.10002 47.8638 2.03729 47.9238C1.97586 47.9734 1.90541 48.0106 1.82986 48.0332C1.76289 48.0554 1.69295 48.0675 1.62242 48.0688C1.53388 48.0791 1.44421 48.0657 1.36247 48.03C1.28073 47.9942 1.20983 47.9374 1.15695 47.8653C1.06347 47.7128 1.01765 47.5357 1.0254 47.3567V43.8195C1.01925 43.6234 1.06094 43.4287 1.14683 43.2525C1.19831 43.1724 1.27115 43.1085 1.35703 43.068C1.44291 43.0276 1.53838 43.0122 1.63254 43.0236C1.71801 43.0206 1.80295 43.0384 1.88005 43.0756C1.95716 43.1128 2.02414 43.1683 2.07524 43.2372C2.18621 43.3829 2.24423 43.5624 2.23967 43.7458V44.0738H3.2212V43.6873C3.2232 43.4603 3.18198 43.235 3.09978 43.0236C3.02652 42.8248 2.91376 42.6432 2.76838 42.4896Z" fill="#AFB1B8"/>
<path d="M8.66017 42.4463C8.34396 42.1793 7.94487 42.0318 7.53191 42.0293C7.32993 42.0302 7.12963 42.0663 6.93995 42.1361C6.74738 42.2051 6.56966 42.3104 6.4163 42.4463C6.25201 42.594 6.12093 42.7752 6.03178 42.9778C5.93188 43.2096 5.88271 43.4602 5.88759 43.7127V47.3516C5.88075 47.6076 5.92998 47.862 6.03178 48.0967C6.12153 48.2924 6.25277 48.466 6.4163 48.6053C6.5679 48.746 6.74593 48.855 6.93995 48.9257C7.12963 48.9955 7.32993 49.0316 7.53191 49.0325C7.73394 49.0321 7.93432 48.9959 8.12387 48.9257C8.3212 48.854 8.5032 48.7452 8.66017 48.6053C8.81835 48.4633 8.94579 48.2902 9.03457 48.0967C9.13637 47.862 9.1856 47.6076 9.17876 47.3516V43.7127C9.18364 43.4602 9.13447 43.2096 9.03457 42.9778C8.9463 42.7773 8.819 42.5966 8.66017 42.4463ZM8.19723 47.3516C8.20559 47.4486 8.1922 47.5462 8.15805 47.6373C8.1239 47.7284 8.06986 47.8107 7.99991 47.878C7.86893 47.9878 7.70376 48.048 7.53318 48.048C7.3626 48.048 7.19742 47.9878 7.06644 47.878C6.99649 47.8107 6.94245 47.7284 6.9083 47.6373C6.87415 47.5462 6.86077 47.4486 6.86912 47.3516V43.7127C6.86077 43.6157 6.87415 43.5181 6.9083 43.427C6.94245 43.3359 6.99649 43.2536 7.06644 43.1863C7.19742 43.0765 7.3626 43.0163 7.53318 43.0163C7.70376 43.0163 7.86893 43.0765 7.99991 43.1863C8.06986 43.2536 8.1239 43.3359 8.15805 43.427C8.1922 43.5181 8.20559 43.6157 8.19723 43.7127V47.3516Z" fill="#AFB1B8"/>
<path d="M16.3985 48.9766V42.0879H15.4448L14.1926 45.7344H14.1749L12.9126 42.0879H11.969V48.9766H12.9531V44.7859H12.9708L13.9346 47.7484H14.4254L15.3968 44.7859H15.4145V48.9766H16.3985Z" fill="#AFB1B8"/>
<path d="M21.9893 42.5709C21.8378 42.4009 21.6465 42.2715 21.4328 42.1945C21.2025 42.1196 20.9614 42.0835 20.7194 42.0877H19.2572V48.9765H20.2387V46.2861H20.7447C21.0509 46.3 21.3557 46.2353 21.6301 46.0979C21.8533 45.974 22.0393 45.7922 22.1689 45.5715C22.2825 45.3883 22.359 45.1844 22.3941 44.9714C22.4327 44.7122 22.4505 44.4503 22.4472 44.1882C22.4567 43.8574 22.4244 43.5267 22.3511 43.2041C22.2856 42.9657 22.1611 42.7479 21.9893 42.5709ZM21.4834 44.6713C21.4791 44.7961 21.448 44.9184 21.3923 45.0299C21.3362 45.1358 21.2474 45.2206 21.1393 45.2715C20.9939 45.3365 20.8353 45.3661 20.6764 45.3579H20.2286V43.0159H20.7346C20.8869 43.0084 21.0388 43.0381 21.1773 43.1024C21.2788 43.1606 21.3593 43.2496 21.4075 43.3566C21.4611 43.4777 21.4903 43.6082 21.4935 43.7406C21.4935 43.8856 21.4935 44.0381 21.4935 44.1984C21.4935 44.3586 21.5036 44.5238 21.4935 44.6713H21.4834Z" fill="#AFB1B8"/>
<path d="M26.6389 42.0879H25.8345L24.3167 48.9766H25.2982L25.5866 47.4967H26.9248L27.2132 48.9766H28.1947L26.6389 42.0879ZM25.7333 46.5583L26.2165 44.0612H26.2342L26.7148 46.5583H25.7333Z" fill="#AFB1B8"/>
<path d="M32.9809 46.2379H32.9632L31.4808 42.0879H30.5372V48.9766H31.5188V44.8342H31.539L33.0391 48.9766H33.9625V42.0879H32.9809V46.2379Z" fill="#AFB1B8"/>
<path d="M38.9788 42.0879L38.1896 44.8266H38.1693L37.38 42.0879H36.3403L37.6887 46.065V48.9766H38.6702V46.065L40.0186 42.0879H38.9788Z" fill="#AFB1B8"/>
<path d="M0.03125 50.9218H0.504308V52.2491H0.825583V50.9218H1.29611V50.6497H0.03125V50.9218Z" fill="#AFB1B8"/>
<path d="M4.00797 50.6497L3.38818 52.2491H3.7297L3.86124 51.8855H4.49873L4.63534 52.2491H4.98444L4.34948 50.6497H4.00797ZM3.95737 51.616L4.17493 51.0235L4.39248 51.616H3.95737Z" fill="#AFB1B8"/>
<path d="M7.93918 51.6594H8.30852V51.8653C8.20066 51.9518 8.06701 51.9992 7.92906 52.0001C7.86455 52.0037 7.80011 51.9918 7.74113 51.9652C7.68216 51.9387 7.63036 51.8983 7.59008 51.8475C7.50527 51.7257 7.46342 51.5789 7.47118 51.4305C7.47118 51.0745 7.62549 50.8965 7.93159 50.8965C8.01216 50.8885 8.09293 50.9097 8.15929 50.9563C8.22564 51.003 8.27319 51.0719 8.29334 51.1508L8.60956 51.0897C8.54126 50.777 8.31611 50.6193 7.93159 50.6193C7.72593 50.6138 7.52595 50.6875 7.37252 50.8253C7.29194 50.9049 7.22959 51.0011 7.18983 51.1074C7.15007 51.2137 7.13386 51.3274 7.14232 51.4407C7.133 51.6595 7.20618 51.8738 7.34723 52.0408C7.42559 52.1216 7.52045 52.1843 7.62526 52.2247C7.73008 52.2651 7.84235 52.2822 7.95436 52.2747C8.20463 52.2817 8.44777 52.1905 8.63233 52.0204V51.3898H7.93918V51.6594Z" fill="#AFB1B8"/>
<path d="M11.9538 50.6497H11.63V52.2491H12.7507V51.9771H11.9538V50.6497Z" fill="#AFB1B8"/>
<path d="M15.3487 50.6497H15.0249V52.2491H15.3487V50.6497Z" fill="#AFB1B8"/>
<path d="M18.6677 51.7177L18.0125 50.6497H17.6989V52.2491H17.9999V51.204L18.6424 52.2491H18.9637V50.6497H18.6677V51.7177Z" fill="#AFB1B8"/>
<path d="M21.668 51.5448H22.4649V51.2727H21.668V50.9218H22.5256V50.6497H21.3442V52.2491H22.5585V51.9771H21.668V51.5448Z" fill="#AFB1B8"/>
<path d="M28.9435 51.2803H28.3136V50.6497H27.9923V52.2491H28.3136V51.5498H28.9435V52.2491H29.2648V50.6497H28.9435V51.2803Z" fill="#AFB1B8"/>
<path d="M31.9614 51.5448H32.7608V51.2727H31.9614V50.9218H32.8215V50.6497H31.6401V52.2491H32.8519V51.9771H31.9614V51.5448Z" fill="#AFB1B8"/>
<path d="M36.0545 51.5448C36.3328 51.5016 36.4744 51.3541 36.4744 51.0998C36.4825 51.0318 36.4722 50.9628 36.4446 50.9002C36.417 50.8375 36.3731 50.7835 36.3176 50.7438C36.1727 50.6711 36.0111 50.6386 35.8496 50.6497H35.1716V52.2492H35.4929V51.5804H35.5561C35.6246 51.5762 35.6931 51.5884 35.756 51.616C35.803 51.645 35.8421 51.6852 35.8698 51.733L36.2189 52.2416H36.6035L36.4087 51.9288C36.3226 51.7744 36.2012 51.6428 36.0545 51.5448ZM35.7307 51.3236H35.4929V50.9218H35.7459C35.8561 50.9129 35.967 50.9258 36.0722 50.96C36.0956 50.9806 36.1141 51.0063 36.1262 51.0351C36.1384 51.0639 36.144 51.0951 36.1425 51.1264C36.1411 51.1576 36.1326 51.1882 36.1178 51.2157C36.103 51.2432 36.0822 51.2671 36.057 51.2855C35.9514 51.3178 35.8409 51.3308 35.7307 51.3236Z" fill="#AFB1B8"/>
<path d="M39.1408 51.5448H39.9377V51.2727H39.1408V50.9218H40.0009V50.6497H38.817V52.2491H40.0313V51.9771H39.1408V51.5448Z" fill="#AFB1B8"/>
</svg>
